<?xml version="1.0" standalone="no"?><!DOCTYPE svg PUBLIC "-//W3C//DTD SVG 1.1//EN" "http://www.w3.org/Graphics/SVG/1.1/DTD/svg11.dtd"><svg t="1535333764574" class="icon" style="" viewBox="0 0 1024 1024" version="1.1" xmlns="http://www.w3.org/2000/svg" p-id="2009" xmlns:xlink="http://www.w3.org/1999/xlink" width="32" height="32"><defs><style type="text/css"></style></defs><path d="M923.886835-1.0e-06" p-id="2010" fill="#cdcdcd"></path><path d="M509.338655 1018.944406c-213.804954 0-387.745459-173.940505-387.745459-387.737773 0-190.601293 142.39252-355.288581 331.204851-383.06937l1.383515-0.202723L454.181562 162.347801l-34.036391 0c-2.138684 0-4.277367-0.629307-5.85688-1.726511-1.342202-0.957892-2.124272-2.236683-2.124272-3.501062l0-89.339522c0-1.244203 0.783031-2.522993 2.138684-3.508748 1.509376-1.076067 3.634609-1.698649 5.842469-1.698649l178.30146 0c2.222271 0 4.360955 0.621621 5.85688 1.698649 1.370064 0.985754 2.152134 2.264545 2.152134 3.508748l0 89.339522c0 1.306653-0.768619 2.550856-2.166546 3.501062-1.481514 1.090479-3.64806 1.726511-5.842469 1.726511L564.453474 162.347801l0 85.593463 1.383515 0.202723c63.347694 9.308942 123.983123 34.58115 175.337471 73.096671l2.585444 1.93596 0.014412-3.229163c0.083587-32.429016 0.237311-52.605277 0.391035-53.968615 0.307448-1.795687 1.397927-3.760471 2.949577-5.325572l54.122339-54.094477c1.509376-1.544925 3.494336-2.634443 5.339023-2.941891 0.279585-0.014412 0.544759-0.021137 0.796482-0.021137 1.468063 0 2.446131 0.244997 3.173438 0.978068l63.221833 63.19397c0.88103 0.887755 1.21634 2.32027 0.936755 4.025644-0.279585 1.788962-1.342202 3.718197-2.935166 5.318847l-54.107928 54.107928c-1.537239 1.544925-3.494336 2.620992-5.339023 2.941891-0.894481 0.11145-10.232247 0.321859-49.439525 0.650444l-4.318681 0.034588 3.270476 2.81699c85.922048 74.012289 135.193438 181.00604 135.193438 293.541536C897.027428 845.0039 723.115746 1018.944406 509.338655 1018.944406zM509.338655 300.315955c-182.466417 0-330.925265 148.437712-330.925265 330.890678 0 182.466417 148.458849 330.91854 330.925265 330.91854 182.452966 0 330.882991-148.451162 330.882991-330.91854C840.221646 448.753667 691.791621 300.315955 509.338655 300.315955zM507.437283 654.514057c-5.927017 0-11.503351-2.299133-15.697131-6.485227-8.652734-8.651773-8.652734-22.721352 0-31.366399l175.827466-175.813054c4.179368-4.19378 9.756663-6.506364 15.682719-6.506364 5.912605 0 11.4899 2.313545 15.669268 6.506364 8.62391 8.631597 8.62391 22.700215 0 31.366399L523.0931 648.035556C518.913732 652.214924 513.350849 654.514057 507.437283 654.514057z" p-id="2011" fill="#cdcdcd"></path></svg>